# WaveFront *.obj file (generated by Cinema 4D)

v -0.970000 0.765899 0.597327
v 0.970000 0.765899 0.597327
v 0.970000 -0.823256 -0.515412
v -0.970000 -0.823256 -0.515412
v -0.970000 0.780491 0.602638
v 0.970000 0.780491 0.602638
v 0.977500 0.778845 0.601485
v 0.982990 0.774348 0.598336
v 0.985000 0.768204 0.594034
v 0.985000 -0.820951 -0.518704
v 0.982990 -0.827095 -0.523006
v 0.977500 -0.831592 -0.526155
v 0.970000 -0.833238 -0.527308
v -0.970000 -0.833238 -0.527308
v -0.977500 -0.831592 -0.526155
v -0.982990 -0.827095 -0.523006
v -0.985000 -0.820951 -0.518704
v -0.985000 0.768204 0.594034
v -0.982990 0.774348 0.598336
v -0.977500 0.778845 0.601485
v -0.970000 0.795785 0.599941
v 0.970000 0.795785 0.599941
v 0.982990 0.792933 0.597945
v 0.992500 0.785143 0.592490
v 0.995981 0.774502 0.585039
v 0.995981 -0.814653 -0.527699
v 0.992500 -0.825294 -0.535150
v 0.982990 -0.833084 -0.540604
v 0.970000 -0.835935 -0.542601
v -0.970000 -0.835935 -0.542601
v -0.982990 -0.833084 -0.540604
v -0.992500 -0.825294 -0.535150
v -0.995981 -0.814653 -0.527699
v -0.995981 0.774502 0.585039
v -0.992500 0.785143 0.592490
v -0.982990 0.792933 0.597945
v -0.970000 0.807681 0.589959
v 0.970000 0.807681 0.589959
v 0.985000 0.804388 0.587654
v 0.995981 0.795393 0.581356
v 1.000000 0.783106 0.572752
v 1.000000 -0.806049 -0.539986
v 0.995981 -0.818336 -0.548590
v 0.985000 -0.827331 -0.554888
v 0.970000 -0.830624 -0.557193
v -0.970000 -0.830624 -0.557193
v -0.985000 -0.827331 -0.554888
v -0.995981 -0.818336 -0.548590
v -1.000000 -0.806049 -0.539986
v -1.000000 0.783106 0.572752
v -0.995981 0.795393 0.581356
v -0.985000 0.804388 0.587654
v -0.970000 0.830624 0.557193
v 0.970000 0.830624 0.557193
v 0.985000 0.827331 0.554888
v 0.995981 0.818336 0.548590
v 1.000000 0.806049 0.539986
v 1.000000 -0.783106 -0.572752
v 0.995981 -0.795393 -0.581356
v 0.985000 -0.804388 -0.587654
v 0.970000 -0.807681 -0.589959
v -0.970000 -0.807681 -0.589959
v -0.985000 -0.804388 -0.587654
v -0.995981 -0.795393 -0.581356
v -1.000000 -0.783106 -0.572752
v -1.000000 0.806049 0.539986
v -0.995981 0.818336 0.548590
v -0.985000 0.827331 0.554888
v -0.970000 0.835935 0.542601
v 0.970000 0.835935 0.542601
v 0.982990 0.833084 0.540604
v 0.992500 0.825294 0.535150
v 0.995981 0.814653 0.527699
v 0.995981 -0.774502 -0.585039
v 0.992500 -0.785143 -0.592490
v 0.982990 -0.792933 -0.597945
v 0.970000 -0.795785 -0.599941
v -0.970000 -0.795785 -0.599941
v -0.982990 -0.792933 -0.597945
v -0.992500 -0.785143 -0.592490
v -0.995981 -0.774502 -0.585039
v -0.995981 0.814653 0.527699
v -0.992500 0.825294 0.535150
v -0.982990 0.833084 0.540604
v -0.970000 0.833238 0.527308
v 0.970000 0.833238 0.527308
v 0.977500 0.831592 0.526155
v 0.982990 0.827095 0.523006
v 0.985000 0.820951 0.518704
v 0.985000 -0.768204 -0.594034
v 0.982990 -0.774348 -0.598336
v 0.977500 -0.778845 -0.601485
v 0.970000 -0.780491 -0.602638
v -0.970000 -0.780491 -0.602638
v -0.977500 -0.778845 -0.601485
v -0.982990 -0.774348 -0.598336
v -0.985000 -0.768204 -0.594034
v -0.985000 0.820951 0.518704
v -0.982990 0.827095 0.523006
v -0.977500 0.831592 0.526155
v -0.970000 0.823256 0.515412
v 0.970000 0.823256 0.515412
v 0.970000 -0.765899 -0.597327
v -0.970000 -0.765899 -0.597327
# 104 vertices

vn -0.130836 -0.456496 0.880053
vn -0.066270 -0.087974 0.993916
vn 0.066270 -0.087974 0.993916
vn 0.130837 -0.456496 0.880053
vn -0.113702 0.418997 0.900841
vn 0.113702 0.418997 0.900841
vn -0.129499 0.731021 0.669955
vn 0.129499 0.731020 0.669955
vn -0.129498 0.879575 0.457796
vn 0.129498 0.879575 0.457796
vn -0.113701 0.989819 0.085622
vn 0.113701 0.989819 0.085622
vn -0.066272 0.903887 -0.422607
vn 0.066272 0.903887 -0.422607
vn -0.130839 0.670849 -0.729961
vn 0.130839 0.670849 -0.729961
vn 0.249114 -0.143868 0.957729
vn 0.432517 0.325889 0.840670
vn 0.495713 0.628373 0.599513
vn 0.495713 0.778274 0.385431
vn 0.432516 0.901432 0.018708
vn 0.249115 0.850765 -0.462753
vn 0.431481 -0.293253 0.853128
vn 0.749142 0.066526 0.659061
vn 0.858600 0.331113 0.391370
vn 0.858600 0.481014 0.177288
vn 0.749141 0.642068 -0.162900
vn 0.431481 0.701379 -0.567355
vn 0.498023 -0.441645 0.746273
vn 0.859923 -0.192272 0.472825
vn 0.983087 0.031802 0.180357
vn 0.983087 0.180357 -0.031802
vn 0.859923 0.378550 -0.342393
vn 0.498024 0.550215 -0.670251
vn 0.498024 -0.550215 0.670251
vn 0.130839 -0.670849 0.729961
vn 0.859923 -0.378550 0.342392
vn 0.983087 -0.180357 0.031802
vn 0.983087 -0.031802 -0.180357
vn 0.859923 0.192272 -0.472825
vn 0.498023 0.441645 -0.746273
vn 0.130837 0.456496 -0.880053
vn 0.431481 -0.701379 0.567354
vn 0.749141 -0.642068 0.162900
vn 0.858600 -0.481014 -0.177288
vn 0.858600 -0.331113 -0.391370
vn 0.749142 -0.066526 -0.659061
vn 0.431481 0.293253 -0.853128
vn 0.249115 -0.850765 0.462753
vn 0.432516 -0.901432 -0.018708
vn 0.495713 -0.778274 -0.385431
vn 0.495713 -0.628373 -0.599513
vn 0.432517 -0.325889 -0.840670
vn 0.249114 0.143868 -0.957729
vn 0.066272 -0.903887 0.422607
vn 0.113701 -0.989819 -0.085622
vn 0.129498 -0.879575 -0.457796
vn 0.129499 -0.731020 -0.669955
vn 0.113702 -0.418997 -0.900841
vn 0.066270 0.087974 -0.993916
vn -0.066272 -0.903887 0.422607
vn -0.130839 -0.670849 0.729961
vn -0.113701 -0.989819 -0.085622
vn -0.129498 -0.879575 -0.457796
vn -0.129499 -0.731021 -0.669955
vn -0.113702 -0.418997 -0.900841
vn -0.066270 0.087974 -0.993916
vn -0.130837 0.456496 -0.880053
vn -0.249116 -0.850765 0.462753
vn -0.432517 -0.901432 -0.018708
vn -0.495713 -0.778274 -0.385431
vn -0.495713 -0.628373 -0.599513
vn -0.432517 -0.325889 -0.840670
vn -0.249114 0.143868 -0.957729
vn -0.431481 -0.701379 0.567354
vn -0.749141 -0.642068 0.162900
vn -0.858600 -0.481014 -0.177288
vn -0.858600 -0.331113 -0.391370
vn -0.749142 -0.066526 -0.659061
vn -0.431481 0.293253 -0.853128
vn -0.498023 -0.550215 0.670251
vn -0.859923 -0.378550 0.342393
vn -0.983087 -0.180357 0.031802
vn -0.983087 -0.031802 -0.180357
vn -0.859923 0.192272 -0.472826
vn -0.498023 0.441645 -0.746273
vn -0.498022 -0.441645 0.746273
vn -0.859923 -0.192272 0.472826
vn -0.983087 0.031802 0.180357
vn -0.983087 0.180357 -0.031802
vn -0.859923 0.378550 -0.342393
vn -0.498023 0.550215 -0.670251
vn -0.431481 -0.293253 0.853128
vn -0.749142 0.066526 0.659061
vn -0.858600 0.331113 0.391370
vn -0.858600 0.481014 0.177288
vn -0.749141 0.642068 -0.162900
vn -0.431481 0.701379 -0.567354
vn -0.249114 -0.143868 0.957729
vn -0.432517 0.325889 0.840670
vn -0.495713 0.628373 0.599513
vn -0.495713 0.778274 0.385431
vn -0.432517 0.901432 0.018708
vn -0.249116 0.850765 -0.462753
# 104 normals

vt 0.000000 0.000000 0.000000
vt 0.000000 0.117007 0.000000
vt 0.976285 0.117007 0.000000
vt 0.976285 0.000000 0.000000
vt 0.000000 0.234015 0.000000
vt 0.976285 0.234015 0.000000
vt 0.000000 0.351022 0.000000
vt 0.976285 0.351022 0.000000
vt 0.000000 0.648978 0.000000
vt 0.976285 0.648978 0.000000
vt 0.000000 0.765986 0.000000
vt 0.976285 0.765986 0.000000
vt 0.000000 0.882993 0.000000
vt 0.976285 0.882993 0.000000
vt 0.000000 1.000000 0.000000
vt 0.976285 1.000000 0.000000
vt 0.980238 0.000000 0.000000
vt 0.984190 0.117007 0.000000
vt 0.984190 0.000000 0.000000
vt 0.984190 0.234015 0.000000
vt 0.984190 0.351022 0.000000
vt 0.984190 0.648978 0.000000
vt 0.984190 0.765986 0.000000
vt 0.984190 0.882993 0.000000
vt 0.980238 1.000000 0.000000
vt 0.988143 0.000000 0.000000
vt 0.992095 0.117007 0.000000
vt 0.992095 0.000000 0.000000
vt 0.992095 0.234015 0.000000
vt 0.992095 0.351022 0.000000
vt 0.992095 0.648978 0.000000
vt 0.992095 0.765986 0.000000
vt 0.992095 0.882993 0.000000
vt 0.988143 1.000000 0.000000
vt 0.996048 0.000000 0.000000
vt 1.000000 0.117007 0.000000
vt 1.000000 0.000000 0.000000
vt 1.000000 0.234015 0.000000
vt 1.000000 0.351022 0.000000
vt 1.000000 0.648978 0.000000
vt 1.000000 0.765986 0.000000
vt 1.000000 0.882993 0.000000
vt 0.996048 1.000000 0.000000
vt 1.000000 1.000000 0.000000
# 44 texture coordinates

o Cube
usemtl default
f 2/4/4 6/3/3 5/2/2 1/1/1
f 6/3/3 22/6/6 21/5/5 5/2/2
f 22/6/6 38/8/8 37/7/7 21/5/5
f 38/8/8 54/10/10 53/9/9 37/7/7
f 54/10/10 70/12/12 69/11/11 53/9/9
f 70/12/12 86/14/14 85/13/13 69/11/11
f 86/14/14 102/16/16 101/15/15 85/13/13
f 7/18/17 6/3/3 2/17/4
f 7/18/17 23/20/18 22/6/6 6/3/3
f 23/20/18 39/21/19 38/8/8 22/6/6
f 39/21/19 55/22/20 54/10/10 38/8/8
f 55/22/20 71/23/21 70/12/12 54/10/10
f 71/23/21 87/24/22 86/14/14 70/12/12
f 87/24/22 102/25/16 86/14/14
f 8/27/23 7/18/17 2/26/4
f 8/27/23 24/29/24 23/20/18 7/18/17
f 24/29/24 40/30/25 39/21/19 23/20/18
f 40/30/25 56/31/26 55/22/20 39/21/19
f 56/31/26 72/32/27 71/23/21 55/22/20
f 72/32/27 88/33/28 87/24/22 71/23/21
f 88/33/28 102/34/16 87/24/22
f 9/36/29 8/27/23 2/35/4
f 9/36/29 25/38/30 24/29/24 8/27/23
f 25/38/30 41/39/31 40/30/25 24/29/24
f 41/39/31 57/40/32 56/31/26 40/30/25
f 57/40/32 73/41/33 72/32/27 56/31/26
f 73/41/33 89/42/34 88/33/28 72/32/27
f 89/42/34 102/43/16 88/33/28
f 3/4/36 10/3/35 9/2/29 2/1/4
f 10/3/35 26/6/37 25/5/30 9/2/29
f 26/6/37 42/8/38 41/7/31 25/5/30
f 42/8/38 58/10/39 57/9/32 41/7/31
f 58/10/39 74/12/40 73/11/33 57/9/32
f 74/12/40 90/14/41 89/13/34 73/11/33
f 90/14/41 103/16/42 102/15/16 89/13/34
f 11/18/43 10/3/35 3/17/36
f 11/18/43 27/20/44 26/6/37 10/3/35
f 27/20/44 43/21/45 42/8/38 26/6/37
f 43/21/45 59/22/46 58/10/39 42/8/38
f 59/22/46 75/23/47 74/12/40 58/10/39
f 75/23/47 91/24/48 90/14/41 74/12/40
f 91/24/48 103/25/42 90/14/41
f 12/27/49 11/18/43 3/26/36
f 12/27/49 28/29/50 27/20/44 11/18/43
f 28/29/50 44/30/51 43/21/45 27/20/44
f 44/30/51 60/31/52 59/22/46 43/21/45
f 60/31/52 76/32/53 75/23/47 59/22/46
f 76/32/53 92/33/54 91/24/48 75/23/47
f 92/33/54 103/34/42 91/24/48
f 13/36/55 12/27/49 3/35/36
f 13/36/55 29/38/56 28/29/50 12/27/49
f 29/38/56 45/39/57 44/30/51 28/29/50
f 45/39/57 61/40/58 60/31/52 44/30/51
f 61/40/58 77/41/59 76/32/53 60/31/52
f 77/41/59 93/42/60 92/33/54 76/32/53
f 93/42/60 103/43/42 92/33/54
f 4/4/62 14/3/61 13/2/55 3/1/36
f 14/3/61 30/6/63 29/5/56 13/2/55
f 30/6/63 46/8/64 45/7/57 29/5/56
f 46/8/64 62/10/65 61/9/58 45/7/57
f 62/10/65 78/12/66 77/11/59 61/9/58
f 78/12/66 94/14/67 93/13/60 77/11/59
f 94/14/67 104/16/68 103/15/42 93/13/60
f 15/18/69 14/3/61 4/17/62
f 15/18/69 31/20/70 30/6/63 14/3/61
f 31/20/70 47/21/71 46/8/64 30/6/63
f 47/21/71 63/22/72 62/10/65 46/8/64
f 63/22/72 79/23/73 78/12/66 62/10/65
f 79/23/73 95/24/74 94/14/67 78/12/66
f 95/24/74 104/25/68 94/14/67
f 16/27/75 15/18/69 4/26/62
f 16/27/75 32/29/76 31/20/70 15/18/69
f 32/29/76 48/30/77 47/21/71 31/20/70
f 48/30/77 64/31/78 63/22/72 47/21/71
f 64/31/78 80/32/79 79/23/73 63/22/72
f 80/32/79 96/33/80 95/24/74 79/23/73
f 96/33/80 104/34/68 95/24/74
f 17/36/81 16/27/75 4/35/62
f 17/36/81 33/38/82 32/29/76 16/27/75
f 33/38/82 49/39/83 48/30/77 32/29/76
f 49/39/83 65/40/84 64/31/78 48/30/77
f 65/40/84 81/41/85 80/32/79 64/31/78
f 81/41/85 97/42/86 96/33/80 80/32/79
f 97/42/86 104/43/68 96/33/80
f 1/4/1 18/3/87 17/2/81 4/1/62
f 18/3/87 34/6/88 33/5/82 17/2/81
f 34/6/88 50/8/89 49/7/83 33/5/82
f 50/8/89 66/10/90 65/9/84 49/7/83
f 66/10/90 82/12/91 81/11/85 65/9/84
f 82/12/91 98/14/92 97/13/86 81/11/85
f 98/14/92 101/16/15 104/15/68 97/13/86
f 19/18/93 18/3/87 1/17/1
f 19/18/93 35/20/94 34/6/88 18/3/87
f 35/20/94 51/21/95 50/8/89 34/6/88
f 51/21/95 67/22/96 66/10/90 50/8/89
f 67/22/96 83/23/97 82/12/91 66/10/90
f 83/23/97 99/24/98 98/14/92 82/12/91
f 99/24/98 101/25/15 98/14/92
f 20/27/99 19/18/93 1/26/1
f 20/27/99 36/29/100 35/20/94 19/18/93
f 36/29/100 52/30/101 51/21/95 35/20/94
f 52/30/101 68/31/102 67/22/96 51/21/95
f 68/31/102 84/32/103 83/23/97 67/22/96
f 84/32/103 100/33/104 99/24/98 83/23/97
f 100/33/104 101/34/15 99/24/98
f 5/36/2 20/27/99 1/35/1
f 5/36/2 21/38/5 36/29/100 20/27/99
f 21/38/5 37/39/7 52/30/101 36/29/100
f 37/39/7 53/40/9 68/31/102 52/30/101
f 53/40/9 69/41/11 84/32/103 68/31/102
f 69/41/11 85/42/13 100/33/104 84/32/103
f 85/42/13 101/43/15 100/33/104
f 102/37/16 103/44/42 104/15/68 101/1/15
f 4/1/62 3/37/36 2/44/4 1/15/1

